<?xml version="1.0" standalone="no"?>
<!DOCTYPE svg PUBLIC "-//W3C//DTD SVG 20010904//EN"
 "http://www.w3.org/TR/2001/REC-SVG-20010904/DTD/svg10.dtd">
<svg version="1.0" xmlns="http://www.w3.org/2000/svg"
 viewBox="0 0 2600.000000 2600.000000"
 preserveAspectRatio="xMidYMid meet">
<metadata>
Created by potrace 1.15, written by Peter Selinger 2001-2017
</metadata>
<g transform="translate(0.000000,2600.000000) scale(0.100000,-0.100000)"
fill="#000000" stroke="none">
<path d="M12140 23824 c-19 -2 -87 -9 -150 -15 -413 -39 -807 -163 -1084 -343
-516 -336 -814 -876 -936 -1696 -22 -151 -50 -474 -50 -581 l0 -69 -433 0
c-270 0 -456 -4 -492 -11 -81 -15 -161 -58 -216 -116 -61 -64 -85 -106 -105
-184 -53 -207 71 -424 276 -483 50 -15 385 -16 3565 -14 l3510 3 68 32 c123
58 206 169 226 303 35 219 -115 424 -334 460 -33 5 -252 10 -487 10 -401 0
-428 1 -428 18 0 61 -23 369 -35 482 -103 927 -435 1541 -1020 1885 -252 149
-551 243 -939 296 -126 18 -213 22 -526 24 -206 2 -391 1 -410 -1z"/>
<path d="M9796 19878 c-14 -49 -19 -405 -7 -528 30 -307 109 -604 234 -881
l25 -55 -31 -50 c-17 -27 -56 -103 -88 -169 -159 -336 -218 -697 -174 -1069
l14 -118 -193 -242 c-960 -1205 -1557 -2148 -1796 -2841 -81 -237 -113 -402
-114 -585 0 -444 227 -819 614 -1015 281 -141 651 -201 1035 -165 273 26 687
119 978 220 82 28 151 49 153 47 3 -2 -4 -76 -15 -163 -145 -1134 -251 -2362
-291 -3374 -11 -296 -26 -258 125 -330 243 -115 690 -235 988 -266 37 -4 69
-10 72 -13 2 -4 -45 -36 -103 -71 -403 -244 -840 -561 -1212 -879 -179 -153
-617 -591 -766 -766 -755 -887 -1209 -1831 -1409 -2927 -102 -561 -85 -848 66
-1151 185 -369 521 -623 927 -704 108 -21 355 -23 462 -4 440 79 819 384 985
794 47 114 72 218 95 387 73 546 233 988 526 1450 269 426 686 860 1179 1228
245 183 562 384 847 536 l106 57 113 -148 c254 -333 430 -536 693 -798 369
-367 666 -590 1008 -755 232 -112 433 -169 666 -191 340 -31 784 82 1174 298
707 391 1483 1145 2292 2228 308 411 661 933 731 1080 143 300 166 657 60 972
-148 443 -512 769 -965 864 -137 28 -363 31 -494 5 -284 -56 -509 -175 -706
-375 -85 -86 -133 -147 -248 -319 -499 -742 -1102 -1484 -1532 -1882 l-121
-112 -26 23 c-39 36 -203 228 -203 237 0 5 34 39 76 77 42 37 114 111 160 163
334 374 565 826 694 1356 21 87 40 159 42 161 2 2 84 44 183 93 202 102 363
195 516 300 115 78 266 198 282 223 11 17 -32 139 -265 764 -598 1599 -1463
3704 -2312 5624 -47 107 -85 196 -83 197 1 2 96 28 210 58 433 115 766 166
1077 167 196 0 297 -17 382 -64 150 -84 632 -573 1112 -1130 351 -408 778
-934 1111 -1372 72 -93 156 -196 188 -227 245 -241 617 -314 939 -184 244 99
438 320 509 582 30 107 32 325 5 429 -28 111 -105 258 -202 385 -1084 1427
-2148 2602 -2674 2955 -144 97 -364 195 -566 254 -509 149 -1232 138 -1993
-29 -74 -16 -136 -28 -138 -27 -2 2 20 42 48 88 193 319 320 692 364 1068 16
130 20 405 8 549 l-6 82 -2667 0 -2668 0 -6 -22z m2274 -1011 c534 -127 936
-489 1126 -1015 145 -399 111 -858 -91 -1227 -110 -202 -314 -432 -490 -551
-231 -157 -504 -255 -758 -271 -78 -5 -90 -9 -96 -27 -4 -12 -55 -227 -112
-479 l-104 -459 -60 5 c-129 9 -347 -17 -583 -69 -63 -14 -116 -23 -119 -20
-3 3 56 273 132 601 75 328 135 598 133 599 -2 2 -42 26 -91 54 -130 76 -222
149 -339 270 -347 359 -493 838 -412 1352 34 219 151 477 304 671 214 271 519
470 849 554 159 40 201 44 411 40 165 -3 211 -7 300 -28z"/>
<path d="M11570 18533 c-19 -3 -78 -16 -130 -29 -443 -115 -792 -487 -881
-939 -18 -91 -18 -330 0 -420 63 -320 251 -611 502 -778 138 -92 319 -166 468
-192 110 -19 294 -19 403 0 471 82 855 444 963 906 40 173 38 392 -5 558 -119
462 -488 803 -956 885 -82 15 -275 19 -364 9z"/>
</g>
</svg>
